<?xml version="1.0" encoding="utf-8"?>
<!-- Generator: Adobe Illustrator 25.0.0, SVG Export Plug-In . SVG Version: 6.00 Build 0)  -->
<!DOCTYPE svg PUBLIC "-//W3C//DTD SVG 1.0//EN" "http://www.w3.org/TR/2001/REC-SVG-20010904/DTD/svg10.dtd" [
	<!ENTITY ns_extend "http://ns.adobe.com/Extensibility/1.0/">
	<!ENTITY ns_ai "http://ns.adobe.com/AdobeIllustrator/10.0/">
	<!ENTITY ns_graphs "http://ns.adobe.com/Graphs/1.0/">
	<!ENTITY ns_vars "http://ns.adobe.com/Variables/1.0/">
	<!ENTITY ns_imrep "http://ns.adobe.com/ImageReplacement/1.0/">
	<!ENTITY ns_sfw "http://ns.adobe.com/SaveForWeb/1.0/">
	<!ENTITY ns_custom "http://ns.adobe.com/GenericCustomNamespace/1.0/">
	<!ENTITY ns_adobe_xpath "http://ns.adobe.com/XPath/1.0/">
]>
<svg version="1.0" id="Layer_2" xmlns:x="&ns_extend;" xmlns:i="&ns_ai;" xmlns:graph="&ns_graphs;"
	 xmlns="http://www.w3.org/2000/svg" xmlns:xlink="http://www.w3.org/1999/xlink" x="0px" y="0px" viewBox="0 0 2000 800"
	 style="enable-background:new 0 0 2000 800;" xml:space="preserve">
<style type="text/css">
	.st0{fill:#F49C00;}
	.st1{fill:none;stroke:#F49C00;stroke-miterlimit:10;}
</style>
<metadata>
	<sfw  xmlns="&ns_sfw;">
		<slices></slices>
		<sliceSourceBounds  bottomLeftOrigin="true" height="646.89" width="1922.02" x="-473.79" y="-858.62"></sliceSourceBounds>
	</sfw>
</metadata>
<g>
	<g>
		<g>
			<path class="st0" d="M1867.75,521.2c4.64-3.13,9.15-6.58,13.52-10.13c4.38-3.56,8.63-7.28,12.75-11.14
				c8.22-7.73,15.91-16.01,22.76-24.93c6.84-8.91,12.87-18.46,17.47-28.63c4.63-10.15,7.78-20.96,8.79-31.98
				c1.05-11-0.09-22.16-3.35-32.7c-3.22-10.56-8.48-20.45-14.85-29.51c-6.32-8.86-14.86-16.07-24.25-21.84
				c-9.41-5.79-19.67-10.22-30.24-13.73c-10.58-3.5-21.49-6.08-32.51-7.97c-11.03-1.88-22.19-3.06-33.37-3.6
				c-11.18-0.53-22.39-0.44-33.5,0.44c-2.8,0.21-5.49,0.5-8.36,0.79l-8.5,0.86c-5.66,0.61-11.34,1.07-17.01,1.58
				c-22.7,1.96-45.46,3.31-68.27,3.84c-22.81,0.52-45.66,0.39-68.48-0.86c-45.63-2.36-91.23-8.72-135.68-20.09
				c-22.21-5.69-44.15-12.53-65.64-20.53c-21.49-8-42.59-17.02-63.22-26.91c-41.31-19.74-80.88-42.5-120.27-65.02
				c-39.38-22.56-78.75-44.79-119.2-64.74c-19.23-9.54-40.65-14.95-62.46-18.38c-21.85-3.39-44.16-4.71-66.51-4.94
				c-44.76-0.39-89.71,3.54-134.4,9.22c-44.71,5.78-89.24,13.44-133.58,22.16c-22.18,4.33-44.31,8.96-66.39,13.83
				c-22.1,4.81-44.15,9.85-66.16,15.09l-33,7.96c-10.99,2.69-21.98,5.42-32.95,8.19c-21.95,5.55-43.85,11.3-65.74,17.1
				c-43.77,11.68-87.41,23.87-130.93,36.53c-43.53,12.64-86.93,25.73-130.22,39.2c-43.28,13.47-86.5,27.34-129.41,41.74l3.67-3.65
				c-0.35,0.9-0.75,2.05-1.11,3.1c-0.36,1.08-0.72,2.16-1.07,3.26c-0.69,2.19-1.34,4.4-1.96,6.63c-1.24,4.45-2.32,8.96-3.29,13.49
				c-1.91,9.07-3.31,18.26-4.11,27.51c-1.66,18.47-0.98,37.2,2.91,55.32c3.9,18.09,11.07,35.55,21.74,50.84
				c5.3,7.66,11.46,14.73,18.2,21.25c6.79,6.46,14.22,12.29,22.06,17.55l0.01,0c0.5,0.34,0.64,1.02,0.3,1.53
				c-0.32,0.48-0.97,0.63-1.47,0.34c-8.25-4.82-16.13-10.35-23.45-16.59c-3.62-3.17-7.17-6.43-10.48-9.95
				c-3.3-3.52-6.49-7.16-9.42-11.02c-11.83-15.34-20.34-33.28-25.18-52.13c-4.88-18.86-6.42-38.47-5.47-57.86
				c0.5-9.7,1.62-19.36,3.28-28.94c0.85-4.79,1.82-9.55,2.96-14.29c0.57-2.37,1.17-4.74,1.83-7.1c0.32-1.18,0.67-2.36,1.02-3.55
				c0.37-1.21,0.71-2.32,1.17-3.65c0.59-1.7,1.88-2.96,3.44-3.56l0.24-0.09c10.68-4.05,21.32-7.98,32-11.89
				c10.68-3.89,21.38-7.73,32.09-11.54c21.41-7.63,42.89-15.06,64.41-22.4c43.04-14.64,86.27-28.72,129.69-42.25
				c86.84-27.01,174.42-51.85,262.94-73.27c22.14-5.31,44.33-10.43,66.59-15.29c22.27-4.8,44.6-9.36,67-13.62
				c44.81-8.43,89.89-15.7,135.32-20.87c45.42-5.14,91.19-8.48,137.25-7.5c23.02,0.54,46.12,2.23,69.12,6
				c11.49,1.88,22.95,4.42,34.27,7.72c2.84,0.78,5.64,1.77,8.46,2.65l4.19,1.49l2.1,0.75l2.08,0.82c5.54,2.08,11.07,4.66,16.34,7.29
				c40.77,20.67,80.26,43.53,119.41,66.52c39.17,22.96,78.15,45.92,118.58,65.78c20.19,9.97,40.75,19.1,61.7,27.21
				c20.95,8.12,42.32,15.1,64.01,20.95c43.39,11.71,88.08,18.56,133.06,21.48c22.49,1.54,45.07,2.04,67.65,1.87
				c22.58-0.18,45.18-1.17,67.73-2.77c5.64-0.42,11.28-0.79,16.91-1.31l8.45-0.73c2.79-0.24,5.74-0.51,8.6-0.68
				c11.54-0.72,23.07-0.62,34.55,0.12c11.48,0.74,22.91,2.15,34.23,4.26c11.31,2.13,22.51,4.97,33.42,8.78
				c10.9,3.82,21.54,8.62,31.37,14.89c4.92,3.12,9.61,6.67,13.95,10.62c4.32,3.98,8.29,8.39,11.64,13.27
				c6.52,9.59,11.89,20.08,15.14,31.31c3.27,11.21,4.3,23.08,3,34.66c-1.27,11.59-4.78,22.81-9.75,33.21
				c-4.95,10.43-11.3,20.09-18.44,29.04c-7.14,8.96-15.1,17.22-23.55,24.89c-4.24,3.83-8.6,7.51-13.09,11.03
				c-4.5,3.52-9.07,6.89-13.9,10.03c-0.51,0.33-1.19,0.19-1.52-0.32c-0.33-0.5-0.19-1.17,0.31-1.51L1867.75,521.2z"/>
		</g>
		<g>
			<path class="st0" d="M1061.29,335.32l-50.66,1.05l-50.66,0.9l-101.32,1.79l-101.32,1.55L656,341.89
				c-33.77,0.39-67.55,1.07-101.32,1.73c-8.58,0.14-17.36,0.07-26.02-0.51c-8.68-0.5-17.34-1.44-25.95-2.73
				c-4.32-0.56-8.59-1.42-12.87-2.19c-4.25-0.92-8.53-1.73-12.75-2.8c-8.49-1.94-16.82-4.49-25.08-7.2
				c-8.28-2.67-16.36-5.9-24.35-9.29l-5.96-2.62c-1.98-0.89-3.93-1.85-5.89-2.79l-2.94-1.41l-3.02-1.57
				c-1.01-0.51-1.98-1.08-2.97-1.63c-0.98-0.56-1.97-1.09-2.92-1.69c-7.73-4.58-14.82-9.87-21.59-15.34
				c-6.7-5.54-13.12-11.26-19.31-17.09c-6.22-5.8-12.28-11.68-18.39-17.46c-6.07-5.82-12.18-11.55-18.46-17.08
				c-12.46-11.18-25.6-21.6-39.47-31.24l0.94-1.65c15.49,7.05,30.13,16.03,44.14,25.82c6.97,4.94,13.78,10.08,20.5,15.29
				c6.69,5.25,13.28,10.55,19.84,15.78c13.14,10.41,26.26,20.53,40.28,27.91c0.87,0.49,1.76,0.9,2.64,1.35
				c0.88,0.44,1.76,0.89,2.65,1.29l2.67,1.22l2.83,1.2l5.67,2.39l5.72,2.27c1.9,0.78,3.84,1.44,5.76,2.16
				c1.93,0.69,3.84,1.43,5.79,2.06l5.82,1.97l5.86,1.84c31.37,9.54,63.88,14.73,96.79,15.26c33.77,0.66,67.55,1.34,101.32,1.73
				l101.32,1.28l101.32,1.55l101.32,1.79l50.66,0.9l50.66,1.05V335.32z"/>
		</g>
		<path class="st1" d="M261.31,224.02"/>
		<g>
			<path class="st0" d="M42.23,295.55l26.36-10.34l26.4-10.21l26.43-10.13l26.45-10.05l2.81-1.07l2.42,2.22
				c1.69,1.55,3.2,3,4.74,4.54c1.52,1.53,3.02,3.08,4.49,4.65c2.94,3.15,5.81,6.36,8.57,9.68c5.53,6.64,10.69,13.65,15.29,21.21
				c4.53,7.58,8.66,15.68,11.06,24.91c1.17,4.61,1.95,9.52,1.69,14.65c-0.2,5.11-1.39,10.41-3.69,15.23
				c-2.31,4.82-5.68,9.03-9.47,12.39c-3.8,3.38-7.98,5.99-12.24,8.06c-4.27,2.04-8.62,3.57-12.97,4.82l-3.27,0.83l-1.64,0.4
				l-1.64,0.33l-3.27,0.64c-1.09,0.2-2.18,0.34-3.27,0.5c-8.71,1.28-17.38,1.64-25.96,1.41c-8.58-0.25-17.09-1.06-25.51-2.53v-1.6
				c8.38-1.52,16.67-2.84,24.83-4.42c8.15-1.56,16.18-3.33,23.89-5.59c3.87-1.08,7.59-2.44,11.24-3.81
				c1.76-0.78,3.59-1.46,5.26-2.33c1.74-0.77,3.35-1.7,4.97-2.58c3.14-1.89,6.01-3.96,8.4-6.26c2.39-2.31,4.31-4.81,5.68-7.54
				c1.35-2.75,2.19-5.74,2.57-9.01c0.36-3.26,0.17-6.78-0.42-10.37c-1.21-7.2-4.03-14.61-7.72-21.64
				c-3.68-7.06-8.18-13.85-13.03-20.4c-2.43-3.28-4.99-6.48-7.61-9.61c-1.32-1.57-2.66-3.11-4.02-4.64
				c-1.35-1.51-2.76-3.08-4.08-4.45l5.23,1.15l-27.07,8.25l-27.1,8.17l-27.12,8.09l-27.17,7.97L42.23,295.55z"/>
		</g>
	</g>
	<g>
		<g>
			<path class="st0" d="M390.29,539.25V426.12h70.06c8.1,0,15.08,2.27,20.94,6.81c5.86,4.54,8.79,9.97,8.79,16.27v8.72
				c0,6.36-2.91,11.8-8.73,16.31c-5.82,4.51-12.82,6.77-20.99,6.77h-12.62l40.46,53.61c1.25,1.58,1.88,3.15,1.88,4.72
				c0,2.06-1.03,3.83-3.08,5.32c-2.05,1.49-4.38,2.23-6.98,2.23c-3.94,0.01-6.94-1.34-8.97-4.07l-46.39-61.81h-14.32v58.25
				c0,2.12-1,3.92-3.01,5.41c-2,1.49-4.38,2.23-7.14,2.23c-2.75,0-5.09-0.74-7.02-2.23C391.25,543.18,390.29,541.38,390.29,539.25z
				 M410.11,465.74h50.25c2.75,0,5.09-0.74,7.02-2.23c1.93-1.48,2.89-3.29,2.89-5.41v-8.91c0-2.12-0.96-3.92-2.89-5.41
				c-1.93-1.48-4.27-2.23-7.02-2.23h-50.25V465.74z"/>
			<path class="st0" d="M625.83,441.57h-70.06v37.17h30.19c2.67,0,4.99,0.76,6.96,2.27c1.96,1.52,2.95,3.3,2.95,5.36
				c0,2.18-0.96,4.03-2.89,5.54c-1.93,1.52-4.27,2.27-7.02,2.27h-30.19v37.44h70.3c2.67,0,4.99,0.74,6.96,2.23
				c1.96,1.48,2.95,3.29,2.95,5.41c0,2.12-1,3.92-3.01,5.41c-2,1.49-4.38,2.23-7.14,2.23h-89.88V426.12h89.88
				c2.75,0,5.13,0.77,7.14,2.32s3.01,3.38,3.01,5.5c0,2.06-1,3.85-3.01,5.36C630.96,440.81,628.58,441.57,625.83,441.57z"/>
			<path class="st0" d="M781.64,433.94v112.95h-26.57l-53.39-93.78v86.14c0,2.12-0.96,3.92-2.89,5.41
				c-1.93,1.49-4.27,2.23-7.02,2.23c-2.75,0-5.09-0.74-7.02-2.23c-1.93-1.48-2.89-3.29-2.89-5.41V426.12h26.18l53.55,93.6v-85.78
				c0-2.12,1-3.95,3.01-5.5s4.38-2.32,7.14-2.32c2.75,0,5.09,0.76,7.02,2.27C780.68,429.91,781.64,431.76,781.64,433.94z"/>
			<path class="st0" d="M827.52,446.93V426.3h100.02v20.81c0,2.12-0.98,3.92-2.95,5.41c-1.97,1.48-4.29,2.22-6.96,2.22
				c-2.75,0-5.13-0.76-7.14-2.27c-2-1.51-3-3.3-3-5.36v-5.54h-20.05v97.69c0,2.12-0.98,3.92-2.95,5.41
				c-1.97,1.49-4.29,2.23-6.96,2.23c-2.83,0-5.23-0.74-7.19-2.23c-1.97-1.48-2.95-3.29-2.95-5.41v-97.69h-20.05v5.36
				c0,2.12-0.96,3.92-2.89,5.41c-1.93,1.48-4.27,2.22-7.02,2.22c-2.75,0-5.09-0.74-7.02-2.22
				C828.48,450.85,827.52,449.05,827.52,446.93z"/>
			<path class="st0" d="M1029.41,536.25l39.9-104.46c1.59-3.78,4.93-5.68,10.02-5.68c4.93,0,8.03,1.61,9.3,4.81l39.51,106.05
				c0.31,0.79,0.47,1.54,0.47,2.27c0,2.12-0.94,3.92-2.83,5.41c-1.89,1.49-4.05,2.23-6.48,2.23c-5.19,0-8.49-1.85-9.9-5.54
				l-7.83-20.72h-45.37l-8.63,22.19c-0.24,0.97-1.22,1.88-2.96,2.76c-1.74,0.88-3.64,1.31-5.69,1.31c-2.92,0-5.34-0.76-7.23-2.27
				c-1.9-1.51-2.84-3.36-2.84-5.54C1028.83,538.16,1029.02,537.22,1029.41,536.25z M1079.19,461.47l-17,43.71h33.52L1079.19,461.47z
				"/>
			<path class="st0" d="M1284.24,531.62H1320c2.75,0,5.13,0.74,7.14,2.23s3.01,3.29,3.01,5.41c0,2.12-1,3.92-3.01,5.41
				c-2,1.49-4.38,2.23-7.13,2.23h-37.04c-4.72,0-9.6-1.15-14.63-3.45c-5.03-2.3-8.53-4.88-10.5-7.72l-22.88-34.08
				c-3.07-4.91-4.6-9.93-4.6-15.08c0-5.69,1.46-10.63,4.36-14.81l23.12-33.71c2.2-3.15,5.62-5.92,10.26-8.31
				c4.64-2.39,9.12-3.59,13.45-3.59h39.16c2.75,0,5.09,0.76,7.02,2.27c1.93,1.52,2.89,3.3,2.89,5.36c0,2.12-0.96,3.95-2.89,5.5
				c-1.93,1.54-4.26,2.32-7.01,2.32H1283c-3.14,0.01-5.7,1.43-7.67,4.28l-21.98,31.61c-1.73,2.48-2.59,5.42-2.58,8.82
				c-0.01,3.58,0.93,6.73,2.81,9.46l20.98,31.08C1276.53,530.03,1279.75,531.63,1284.24,531.62z"/>
			<path class="st0" d="M1376.39,536.25l39.9-104.46c1.59-3.78,4.93-5.68,10.02-5.68c4.93,0,8.03,1.61,9.3,4.81l39.51,106.05
				c0.31,0.79,0.47,1.54,0.47,2.27c0,2.12-0.94,3.92-2.83,5.41c-1.89,1.49-4.05,2.23-6.48,2.23c-5.19,0-8.49-1.85-9.9-5.54
				l-7.83-20.72h-45.37l-8.63,22.19c-0.24,0.97-1.22,1.88-2.96,2.76c-1.74,0.88-3.64,1.31-5.69,1.31c-2.92,0-5.34-0.76-7.23-2.27
				c-1.9-1.51-2.84-3.36-2.84-5.54C1375.8,538.16,1376,537.22,1376.39,536.25z M1426.16,461.47l-17,43.71h33.52L1426.16,461.47z"/>
			<path class="st0" d="M1521.94,539.25V426.12H1592c8.1,0,15.08,2.27,20.94,6.81c5.86,4.54,8.79,9.97,8.79,16.27v8.72
				c0,6.36-2.91,11.8-8.73,16.31c-5.82,4.51-12.82,6.77-21,6.77h-12.62l40.46,53.61c1.25,1.58,1.88,3.15,1.88,4.72
				c0,2.06-1.03,3.83-3.07,5.32c-2.05,1.49-4.38,2.23-6.98,2.23c-3.94,0.01-6.93-1.34-8.97-4.07l-46.39-61.81h-14.32v58.25
				c0,2.12-1,3.92-3.01,5.41c-2.01,1.49-4.38,2.23-7.14,2.23c-2.75,0-5.09-0.74-7.02-2.23
				C1522.9,543.18,1521.94,541.38,1521.94,539.25z M1541.75,465.74H1592c2.75,0,5.09-0.74,7.02-2.23c1.93-1.48,2.89-3.29,2.89-5.41
				v-8.91c0-2.12-0.96-3.92-2.89-5.41c-1.93-1.48-4.27-2.23-7.02-2.23h-50.24V465.74z"/>
		</g>
		<g>
			<path class="st0" d="M223.25,628.42v62.33l5.46,9.14h7.81l5.69-9.37v-110.5c0-2.6,0.95-4.85,2.84-6.75
				c1.9-1.9,4.14-2.84,6.75-2.84c2.53,0,4.72,0.93,6.58,2.79c1.86,1.86,2.79,4.05,2.79,6.58v113.73c0,1.41-0.78,3.38-2.34,5.91
				l-8.7,14.38c-1.78,3.2-4.5,4.79-8.14,4.79h-17.62c-5.57,0-9.14-2.53-10.7-7.58c-1.71,5.06-5.13,7.58-10.26,7.58h-16.5
				c-4.76,0-8.18-1.75-10.26-5.24l-8.03-13.49c-1.49-2.45-2.23-4.57-2.23-6.36V580.03c0-2.6,0.95-4.85,2.84-6.75
				c1.89-1.9,4.14-2.84,6.75-2.84c2.45,0,4.59,0.95,6.41,2.84c1.82,1.89,2.73,4.14,2.73,6.75v110.94l5.46,8.92h8.03l5.91-9.37
				v-62.11c0-2.6,0.91-4.81,2.73-6.63c1.82-1.82,4.03-2.73,6.63-2.73c2.6,0,4.81,0.91,6.63,2.73
				C222.33,623.61,223.25,625.82,223.25,628.42z"/>
			<path class="st0" d="M339.34,705.57l37.72-128.17c1.5-4.64,4.66-6.96,9.47-6.96c4.66,0,7.59,1.97,8.79,5.91l37.35,130.12
				c0.3,0.97,0.45,1.9,0.45,2.79c0,2.6-0.89,4.81-2.68,6.63c-1.78,1.82-3.83,2.73-6.13,2.73c-4.9,0-8.02-2.27-9.36-6.8l-7.4-25.42
				h-42.89l-8.16,27.23c-0.22,1.19-1.16,2.31-2.8,3.38c-1.64,1.07-3.44,1.61-5.38,1.61c-2.76,0-5.04-0.93-6.84-2.79
				c-1.79-1.86-2.69-4.12-2.69-6.8C338.78,707.92,338.97,706.77,339.34,705.57z M386.39,613.81l-16.07,53.63h31.69L386.39,613.81z"
				/>
			<path class="st0" d="M532.06,570.44h48.78c5.95,0,11.59,2.51,16.91,7.53c5.32,5.02,7.98,11.09,7.98,18.23
				c0,2.68-0.95,4.94-2.84,6.8c-1.9,1.86-4,2.79-6.3,2.79c-3.2,0-5.39-0.72-6.58-2.17c-1.19-1.45-2.32-4.14-3.4-8.08
				c-1.08-3.94-3.48-5.91-7.21-5.91h-46.36c-2.24,0-3.35,0.72-3.35,2.16c-0.06,0.91,0.4,1.96,1.36,3.15l69.65,88.8
				c3.35,4.31,5.03,8.92,5.03,13.82c0,5.58-2.03,10.48-6.08,14.72c-4.05,4.24-8.57,6.36-13.55,6.36H535.6
				c-6.69,0-12.51-2.54-17.45-7.64c-4.94-5.09-7.42-10.68-7.42-16.78c0-6.99,3.27-10.48,9.81-10.48c2.53,0,4.68,0.91,6.47,2.73
				c1.78,1.82,2.68,3.96,2.68,6.41c0,2.01,0.69,3.68,2.06,5.02c1.38,1.34,3.1,2.01,5.18,2.01h46.61c2.01,0,3.01-0.79,3.01-2.39
				c0.06-0.76-0.4-1.73-1.37-2.92l-69.53-88.8c-3.28-4.23-4.92-8.84-4.92-13.82c0-5.8,2.08-10.83,6.25-15.11
				C521.15,572.58,526.18,570.44,532.06,570.44z"/>
			<path class="st0" d="M682.69,709.26V579.8c0-2.53,0.91-4.72,2.73-6.58c1.82-1.86,4.03-2.79,6.63-2.79c2.53,0,4.72,0.93,6.58,2.79
				c1.86,1.86,2.79,4.05,2.79,6.58V635h57.09V579.8c0-2.53,0.91-4.72,2.73-6.58c1.82-1.86,4.03-2.79,6.63-2.79
				c2.6,0,4.81,0.93,6.63,2.79c1.82,1.86,2.73,4.13,2.73,6.8v129.23c0,2.53-0.95,4.72-2.84,6.58c-1.9,1.86-4.07,2.79-6.52,2.79
				c-2.68,0-4.91-0.91-6.69-2.73c-1.78-1.82-2.68-4.03-2.68-6.63v-55.53h-56.86v55.53c0,2.53-0.95,4.72-2.84,6.58
				c-1.9,1.86-4.14,2.79-6.75,2.79c-2.53,0-4.72-0.91-6.58-2.73C683.62,714.07,682.69,711.86,682.69,709.26z"/>
			<path class="st0" d="M864.46,570.44h75.82c2.45,0,4.63,0.93,6.52,2.79c1.9,1.86,2.84,4.05,2.84,6.58c0,2.6-0.93,4.85-2.79,6.74
				c-1.86,1.9-4.05,2.84-6.58,2.84h-28.32v110.5h28.32c2.6,0,4.81,0.91,6.63,2.73c1.82,1.82,2.73,4.03,2.73,6.63
				s-0.93,4.81-2.79,6.63c-1.86,1.82-4.05,2.73-6.58,2.73h-75.82c-2.6,0-4.81-0.91-6.63-2.73c-1.82-1.82-2.73-4.03-2.73-6.63
				s0.91-4.81,2.73-6.63c1.82-1.82,4.03-2.73,6.63-2.73h28.77v-110.5h-28.77c-2.6,0-4.81-0.93-6.63-2.79
				c-1.82-1.86-2.73-4.05-2.73-6.58c0-2.68,0.91-4.94,2.73-6.8C859.64,571.37,861.85,570.44,864.46,570.44z"/>
			<path class="st0" d="M1121.82,580.03v138.59h-25.12l-50.48-115.07v105.7c0,2.6-0.91,4.81-2.73,6.63
				c-1.82,1.82-4.03,2.73-6.63,2.73c-2.6,0-4.81-0.91-6.63-2.73c-1.82-1.82-2.73-4.03-2.73-6.63V570.44h24.75l50.62,114.85V580.03
				c0-2.6,0.95-4.85,2.84-6.75c1.89-1.9,4.14-2.84,6.75-2.84c2.6,0,4.81,0.93,6.63,2.79
				C1120.91,575.08,1121.82,577.35,1121.82,580.03z"/>
			<path class="st0" d="M1253.97,570.44h31.11c2.6,0,4.81,0.91,6.63,2.73c1.82,1.82,2.73,4.03,2.73,6.63c0,2.75-0.99,5.04-2.96,6.86
				c-1.97,1.82-4.11,2.73-6.42,2.73h-29.71c-2.9-0.04-5.43,1.32-7.58,4.08l-26.28,33.81c-2.23,2.68-3.33,6.4-3.32,11.16v51.86
				c0,2.68,0.91,4.94,2.73,6.8s4.03,2.79,6.63,2.79h38.13c2.53,0,4.72-0.93,6.58-2.79c1.86-1.86,2.79-4.05,2.79-6.58v-20.29h-19.4
				c-2.68,0-4.91-0.91-6.69-2.73c-1.78-1.82-2.68-4.03-2.68-6.63c0-2.6,0.89-4.81,2.68-6.63c1.78-1.82,4.01-2.73,6.69-2.73h38.13
				v39.03c0,7.73-2.75,14.35-8.25,19.85c-5.5,5.5-12.12,8.25-19.85,8.25h-38.13c-7.8,0-14.48-2.75-20.01-8.25
				c-5.54-5.5-8.31-12.11-8.31-19.85v-51.85c0-9.29,2.49-17.13,7.47-23.53l27.65-35.12c2.01-2.68,4.81-4.94,8.42-6.8
				C1246.37,571.37,1250.11,570.44,1253.97,570.44z"/>
			<path class="st0" d="M1371.63,595.97v-25.31h94.55v25.54c0,2.6-0.93,4.81-2.79,6.63c-1.86,1.82-4.05,2.73-6.58,2.73
				c-2.6,0-4.85-0.93-6.75-2.79c-1.89-1.86-2.84-4.05-2.84-6.58v-6.8h-18.96v119.86c0,2.6-0.93,4.81-2.79,6.63
				c-1.86,1.82-4.05,2.73-6.58,2.73c-2.68,0-4.94-0.91-6.8-2.73c-1.86-1.82-2.79-4.03-2.79-6.63V589.39h-18.96v6.58
				c0,2.6-0.91,4.81-2.73,6.63c-1.82,1.82-4.03,2.73-6.63,2.73s-4.81-0.91-6.63-2.73C1372.54,600.79,1371.63,598.57,1371.63,595.97z
				"/>
			<path class="st0" d="M1613.38,584.15l20.63,42.04c2.9,5.72,4.35,11.93,4.35,18.62c0,6.54-1.45,12.71-4.35,18.51l-20.63,41.59
				c-4.39,9.14-11.82,13.71-22.3,13.71c-4.98,0-9.46-1.3-13.44-3.9c-3.98-2.6-6.97-5.87-8.97-9.81l-20.74-41.59
				c-2.75-5.42-4.12-11.6-4.12-18.51c0-6.91,1.38-13.12,4.12-18.62l20.74-42.04c4.68-9.14,12.15-13.71,22.41-13.71
				C1601.49,570.44,1608.92,575.01,1613.38,584.15z M1584.84,593.52l-19.4,39.47c-1.78,3.94-2.68,7.8-2.68,11.6
				c0,4.09,0.89,7.99,2.68,11.71l19.96,39.92c1.04,2.45,2.94,3.68,5.69,3.68c2.38,0,4.2-1.23,5.46-3.68l20.07-39.92
				c1.86-3.94,2.79-7.84,2.79-11.71c0-4.09-0.93-7.95-2.79-11.6l-19.62-39.47c-1.27-2.9-3.23-4.35-5.91-4.35
				S1586.32,590.62,1584.84,593.52z"/>
			<path class="st0" d="M1810.54,580.03v138.59h-25.12l-50.48-115.07v105.7c0,2.6-0.91,4.81-2.73,6.63
				c-1.82,1.82-4.03,2.73-6.63,2.73c-2.6,0-4.81-0.91-6.63-2.73c-1.82-1.82-2.73-4.03-2.73-6.63V570.44h24.75l50.62,114.85V580.03
				c0-2.6,0.95-4.85,2.84-6.75c1.9-1.9,4.14-2.84,6.75-2.84c2.6,0,4.81,0.93,6.63,2.79
				C1809.62,575.08,1810.54,577.35,1810.54,580.03z"/>
		</g>
	</g>
</g>
</svg>
